<?xml version="1.0" encoding="utf-8"?>
<!-- Generator: Adobe Illustrator 15.0.0, SVG Export Plug-In . SVG Version: 6.00 Build 0)  -->
<!DOCTYPE svg PUBLIC "-//W3C//DTD SVG 1.1//EN" "http://www.w3.org/Graphics/SVG/1.1/DTD/svg11.dtd">
<svg version="1.1" id="Layer_1" xmlns="http://www.w3.org/2000/svg" xmlns:xlink="http://www.w3.org/1999/xlink" x="0px" y="0px"
	 width="1000px" height="1000px" viewBox="0 0 1000 1000" enable-background="new 0 0 1000 1000" xml:space="preserve">
<g>
	<path fill-rule="evenodd" clip-rule="evenodd" fill="#FFFFFF" d="M451.492,5.018c-0.156,0.02,1.125-2.817,3.195-3.032
		c57.406-5.817,115.837,1.412,156.897,18.246c2.396,0.989,6.533,1.49,9.578,3.045c2.07,1.042,4.659,5.219,6.43,6.078
		c2.667,1.347,6.272,1.354,9.604,3.045c2.121,1.087,4.555,5.088,6.39,6.09c3.54,1.92,6.507,1.191,9.617,3.052
		c2.187,1.302,4.399,4.822,6.403,6.084c5.4,3.396,10.723,5.368,15.98,9.129c4.776,3.39,7.835,8.283,12.819,12.168
		c10.411,8.056,21.577,13.573,28.825,21.304c2.187,2.323,1.042,6.877,3.228,9.116c1.276,1.328,5.297,1.686,6.391,3.045
		c2.967,3.761,3.943,8.758,6.377,12.162c2.446,3.403,7.86,6.37,9.616,9.129c0.755,1.1-1.002,5.31,0,6.097
		c0.378,0.28,3.007-0.397,3.241,0c0.521,1.106-0.988,5.349,0,6.071c0.416,0.352,2.889-0.423,3.149,0
		c0.677,1.126-0.976,5.316,0,6.104c8.304,6.429,16.788,23.081,22.437,36.491c0.455,1.087-0.911,5.408,0,6.097
		c6.767,5.258,10.593,37.103,12.806,54.77c0.117,0.923-0.638,5.57,0,6.084c7.365,5.752,3.461,50,3.201,66.931
		c-0.039,2.122,1.496,14.082,0,15.227c-1.887,1.497-4.555,4.906-3.201,9.136c1.77,5.479,2.876,22.508,3.201,36.498
		c1.133,43.604-1.613,85.509,0,130.844c0.221,6.076-0.794,12.213,0,18.264c1.015,7.38,4.646,16.541,3.188,30.427
		c-0.611,5.856-3.084,8.408-3.188,12.169c-0.456,20.718,3.188,42.139,3.188,63.886c0,20.328-2.968,42.998-3.188,63.912
		c-0.234,22.241,2.33,44.847,0,63.912c0-0.052-3.084,0.884-3.201,3.019c-1.314,23.894-9.201,47.385-19.196,69.989
		c-2.329,5.232-9.317,12.871-9.604,18.246c-0.234,4.398-6.13,6.585-6.442,12.168c0,0.338-2.368,7.887-3.149,9.149
		c-1.952,3.006-7.483,6.052-9.617,9.109c-0.794,1.119,1.002,5.284,0,6.104c-2.89,2.251-3.943,3.5-6.429,6.077
		c-0.938,0.964-5.519-1.002-6.39,0c-2.135,2.473-1.289,6.676-3.189,9.137c-2.641,3.292-3.267,8.433-6.429,12.154
		c-5.661,6.729-12.858,10.867-22.423,18.284c-3.462,2.668-6.012,6.547-9.578,9.11c-7.86,5.661-17.321,10.269-25.638,15.227
		c-2.252,1.341-7.093,1.262-9.604,3.032c-1.354,0.977-1.887,5.323-3.201,6.065c-1.159,0.701-5.584-0.95-6.39,0
		c-0.3,0.377,0.43,2.875,0,3.07c-1.159,0.521-5.636-0.898-6.416,0c-3.229,3.788-10.411,8.811-19.196,12.168
		c-1.132,0.43-5.688-0.845-6.402,0c-0.247,0.312,0.351,2.941,0,3.033c-1.146,0.402-5.701-0.808-6.403,0
		c-3.839,4.464-17.257,4.047-28.813,6.076c-0.43,0.092-0.61,2.93-3.214,3.072c-3.071,0.156-6.611-0.547-9.618,0
		c-8.562,1.522-23.425,4.073-38.403,6.077c-9.032,1.211-18.572,3.098-25.599,3.032c0.716,0.014-1.491-2.98-3.228-3.032
		c-24.804-1.262-58.361-5.752-83.257-15.226c-1.139-0.417-5.681,0.846-6.39,0c-0.261-0.313,0.344-2.915,0-3.033
		c-7.171-2.59-16.125-3.266-22.404-6.116c-1.536-0.664,0.299-2.838-3.228-3.006c-4.587-0.247-6.903-5.792-12.773-6.116
		c-2.772-0.105-7.093-4.607-9.63-6.065c-3.494-2.043-7.535-2.876-12.793-6.09c-1.77-1.081,0.501-2.851-3.195-3.046
		c-2.662-0.13-7.06-4.659-12.838-9.123c-3.605-2.798-6.253-6.571-9.585-9.11c-3.962-3.031-8.563-2.849-12.825-6.104
		c-3.754-2.875-6.357-6.246-9.585-9.122c-2.798-2.498-7.041-6.676-9.611-9.123c-5.967-5.674-7.014-11.062-12.812-18.271
		c-1.906-2.407-4.399-3.162-6.416-6.09c-6.403-9.28-12.416-19.209-19.196-30.427c-1.601-2.616-1.366-5.856-3.195-9.111
		c-0.989-1.756-5.72-4.606-6.403-6.104c-0.768-1.666,0.468-4.307,0-6.077c0.026,0.131-2.948-8.927-3.195-9.122
		c-4.418-3.436-6.592-17.244-9.618-27.396c-0.325-1.015,0.755-5.466,0-6.076c-4.086-3.163-1.724-6.195-3.227-12.143
		c-1.875-7.679-5.935-29.854-6.384-45.667c-0.188-6.194,3.253-12.012,3.208-18.259c-0.033-2.159-2.785-5.348-3.208-9.109
		c-5.732-51.652,0-119.533,0-176.496c0-84.428-3.572-170.789,0-255.602c0.813-19.521,2.486-39.166,6.384-57.822
		c1.269-5.895,1.848-10.58,3.227-15.2c0.234-0.859,3.052-0.202,3.208-3.039c0.052-1.165,1.08-13.573,3.182-15.233
		c0.377-0.279,3.006,0.391,3.228,0c0.527-1.086-0.957-5.349,0-6.084c2.642-2.056,3.019-7.6,6.403-15.2
		c0.579-1.347,3.019,0.188,3.195-3.045c0.234-4.379,6.071-6.572,6.39-12.162c0.215-3.969,4.933-3.806,6.416-6.104
		c0.723-1.106-1.015-5.29,0-6.071c0.377-0.286,3.007,0.371,3.195,0c0.566-1.106-0.937-5.362,0-6.097
		c0.488-0.352,2.896,0.475,3.208,0c2.837-4.145,3.272-7.906,6.409-12.168c0.794-1.087,5.935-2.076,6.383-3.052
		c0.677-1.393-0.983-4.887,0-6.071c2.336-2.694,8.896-8.465,12.812-12.161c4.444-4.23,8.83-8.694,12.806-12.188
		c1.848-1.634,4.633-4.783,6.403-6.091c2.291-1.646,7.223-1.139,9.617-3.026c4.809-3.833,5.668-9.214,9.585-12.168
		c5.089-3.839,10.379-5.421,16.033-9.129c2.037-1.347,4.509-4.978,6.384-6.084c2.635-1.549,6.487-1.21,9.617-3.052
		c1.958-1.151,4.633-5.186,6.422-6.09c3.644-1.874,6.383-1.236,9.578-3.045c2.057-1.125,4.607-5.121,6.423-6.078
		c1.158-0.618,5.576,0.924,6.39,0C391.27,15.129,427.488,7.979,451.492,5.018z M582.771,59.794c5.491,0.149,8.225-2.342,9.617-6.09
		C587.339,53.99,581.274,53.3,582.771,59.794z M441.881,87.162c13.931,2.102,17.706-5.453,22.417-12.155
		C449.8,72.385,444.354,78.371,441.881,87.162z M307.375,157.158c11.836,4.88,24.987-13.671,9.611-15.207
		C315.112,148.27,310.303,151.777,307.375,157.158z M618,175.41c-2.851-2.33-9.122,1.875-9.617,3.032
		C604.492,188.34,625.743,181.82,618,175.41z M256.171,184.54c2.148,0,4.275,0,6.391,0c0-2.03,0-4.054,0-6.097
		c-2.115,0-4.243,0-6.391,0C256.171,180.486,256.171,182.51,256.171,184.54z M493.131,245.394
		c2.127-12.168-8.505-12.227-19.248-12.168C474.338,242.966,481.184,246.61,493.131,245.394z M698.01,242.354
		c7.197,2.083,16.06,9.143,22.449,3.039C722.814,228.521,700.665,232.724,698.01,242.354z M518.729,269.736
		c3.214,0,3.799,2.479,6.402,3.045c-0.299-4.796,0.43-10.548-6.402-9.136C518.729,265.682,518.729,267.712,518.729,269.736z
		 M653.203,306.247c3.188,0,6.403,0,9.63,0c0-3.052,0-6.078,0-9.123c-3.227,0-6.441,0-9.63,0
		C653.203,300.169,653.203,303.195,653.203,306.247z M416.276,312.324c2.114,0,4.262,0,6.39,0c0-2.017,0-4.041,0-6.077
		c-2.128,0-4.275,0-6.39,0C416.276,308.284,416.276,310.307,416.276,312.324z M694.834,376.223
		c10.933,2.304,12.469-11.602,3.176-12.167C697.008,368.187,693.494,369.879,694.834,376.223z M640.397,440.116
		c2.485,0.696,3.761,2.577,3.188,6.11c9.175,0.599,17.478,0.371,16.021-9.129C652.501,435.763,642.245,430.101,640.397,440.116z
		 M413.049,458.4c0.611,8.544,5.596,12.956,16.04,12.161C431.405,455.986,422.198,454.561,413.049,458.4z M557.133,476.633
		C545.551,491.02,575.887,480.687,557.133,476.633L557.133,476.633z M374.625,522.292c2.148,0,4.275,0,6.436,0
		c0-2.017,0-4.06,0-6.091c-2.16,0-4.288,0-6.436,0C374.625,518.232,374.625,520.275,374.625,522.292z M749.233,540.525
		c4.451-0.117,7.067,1.444,9.63,3.071c4.386-3.878,4.386-14.381,0-18.259c-3.188,0-6.402,0-9.63,0
		C749.233,530.414,749.233,535.502,749.233,540.525z M278.562,574.011c0.599-6.611-2.596-9.657-9.585-9.123
		C268.398,571.537,271.612,574.57,278.562,574.011z M310.603,610.541C300.875,620.783,322.438,619.741,310.603,610.541
		L310.603,610.541z M541.14,634.863c4.125-10.28-12.546-16.085-16.008-9.096C533.396,625.988,528.516,638.781,541.14,634.863z
		 M429.088,640.954c4.243,3.957,11.882,4.009,12.793-3.019C433.858,637.545,431.854,632.092,429.088,640.954z M355.429,677.498
		C344.641,668.219,345.733,688.716,355.429,677.498L355.429,677.498z M688.406,698.764c7.287,0.845,12.037-0.716,12.819-6.078
		C695.59,693.375,685.179,689.627,688.406,698.764z M534.75,753.538c0.155-1.847,0.469-3.604,3.175-3.031
		c-0.364-3.735-0.937-7.21-6.403-6.078C532.043,747.994,530.988,753.07,534.75,753.538z M669.223,793.088
		c0.183-1.848,0.481-3.578,3.188-3.032c-0.338-3.695-0.95-7.21-6.39-6.09C666.517,787.545,665.462,792.62,669.223,793.088z
		 M323.395,814.393c3.208,0,3.82,2.485,6.417,3.031c0-3.031,2.583-3.604,3.195-6.09c-3.195,0.013-3.807-2.447-6.403-3.02
		C326.603,811.347,324.02,811.907,323.395,814.393z M525.132,844.832c0.6,8.563,5.558,12.923,16.008,12.143
		C543.599,845.145,530.532,840.03,525.132,844.832z M480.272,850.897c-2.694-2.578-9.116,2.212-9.552,3.058
		C467.304,859.902,482.667,853.161,480.272,850.897z M381.06,860.02c6.67,6.663,12.025,6.286,16.007-3.045
		C392.962,852.849,381.359,852.275,381.06,860.02z M505.884,881.324c3.24-0.014,3.84,2.459,6.442,3.058
		c0-3.071,2.576-3.631,3.188-6.104c-3.188,0.025-3.8-2.446-6.391-3.045C509.124,878.304,506.535,878.863,505.884,881.324z
		 M451.492,896.524c-0.592-4.504-7.75-2.786-12.806-3.033C431.854,904.67,454.967,907.222,451.492,896.524z M365.047,914.809
		c2.095,0,4.242,0,6.383,0c3.585-4.373,3.462-7.432-3.195-9.123C368.053,909.576,364.123,909.902,365.047,914.809z M537.925,948.268
		c2.146,0,4.256,0,6.403,0c0.195-3.892,4.1-4.203,3.214-9.123c-3.214,0-6.402,0-9.617,0
		C537.925,942.189,537.925,945.223,537.925,948.268z"/>
	<path fill-rule="evenodd" clip-rule="evenodd" fill="#ED1C24" d="M453.75,24.298c-0.11,0.02,1.048-2.72,2.941-2.922
		c52.473-5.589,105.908,1.367,143.44,17.562c2.213,0.95,5.986,1.431,8.784,2.928c1.888,1.002,4.242,5.01,5.856,5.856
		c2.447,1.288,5.753,1.288,8.759,2.928c1.952,1.054,4.19,4.899,5.856,5.856c3.266,1.835,5.934,1.132,8.797,2.922
		c2.018,1.255,4.061,4.652,5.856,5.856c4.919,3.273,9.852,5.16,14.653,8.785c4.36,3.286,7.145,7.971,11.688,11.712
		c9.5,7.763,19.729,13.053,26.366,20.497c2.004,2.232,0.937,6.644,2.94,8.765c1.159,1.275,4.842,1.627,5.817,2.935
		c2.746,3.625,3.645,8.433,5.856,11.712c2.265,3.254,7.185,6.13,8.798,8.792c0.664,1.067-0.897,5.088,0,5.85
		c0.325,0.273,2.732-0.364,2.928,0c0.481,1.073-0.858,5.154,0,5.856c0.391,0.318,2.707-0.417,2.928,0
		c0.612,1.073-0.896,5.095,0,5.85c7.588,6.208,15.331,22.222,20.484,35.131c0.442,1.035-0.794,5.186,0,5.85
		c6.195,5.068,9.683,35.704,11.7,52.713c0.13,0.853-0.586,5.349,0,5.837c6.78,5.524,3.175,48.106,2.954,64.413
		c-0.053,2.03,1.341,13.535,0,14.634c-1.771,1.432-4.165,4.737-2.954,8.771c1.64,5.309,2.654,21.675,2.954,35.15
		c0.963,41.925-1.51,82.255,0,125.866c0.221,5.882-0.755,11.783,0,17.575c0.885,7.118,4.242,15.942,2.928,29.269
		c-0.521,5.647-2.862,8.081-2.928,11.726c-0.43,19.95,2.928,40.526,2.928,61.479c0,19.573-2.707,41.371-2.928,61.478
		c-0.234,21.383,2.095,43.155,0,61.466c0-0.026-2.824,0.846-2.954,2.928c-1.185,23.009-8.407,45.588-17.557,67.348
		c-2.068,5.023-8.511,12.39-8.758,17.556c-0.234,4.217-5.557,6.338-5.87,11.726c-0.038,0.312-2.173,7.549-2.928,8.771
		c-1.77,2.876-6.793,5.83-8.759,8.785c-0.754,1.054,0.938,5.088,0,5.844c-2.653,2.186-3.604,3.383-5.882,5.855
		c-0.885,0.963-5.049-0.976-5.869,0c-1.913,2.407-1.133,6.442-2.89,8.798c-2.407,3.162-3.019,8.107-5.869,11.713
		c-5.179,6.48-11.765,10.463-20.51,17.568c-3.149,2.563-5.531,6.325-8.759,8.771c-7.209,5.439-15.863,9.864-23.412,14.641
		c-2.096,1.288-6.521,1.236-8.811,2.929c-1.249,0.937-1.73,5.127-2.94,5.869c-1.054,0.611-5.076-0.925-5.856,0
		c-0.273,0.325,0.402,2.732,0,2.928c-1.055,0.481-5.153-0.885-5.83,0c-3.006,3.645-9.501,8.485-17.569,11.713
		c-1.054,0.403-5.192-0.819-5.856,0c-0.247,0.299,0.312,2.784,0,2.915c-1.027,0.364-5.193-0.794-5.83,0
		c-3.527,4.282-15.786,3.878-26.379,5.856c-0.353,0.052-0.521,2.811-2.929,2.902c-2.785,0.156-6.013-0.495-8.758,0
		c-7.835,1.509-21.408,3.956-35.125,5.855c-8.317,1.185-17.022,2.98-23.445,2.955c0.677,0.025-1.36-2.851-2.941-2.955
		c-22.645-1.184-53.332-5.505-76.113-14.614c-1.034-0.417-5.186,0.78-5.843,0c-0.234-0.286,0.312-2.824,0-2.915
		c-6.579-2.512-14.751-3.149-20.497-5.896c-1.406-0.638,0.267-2.745-2.928-2.902c-4.197-0.221-6.338-5.583-11.712-5.843
		c-2.486-0.144-6.468-4.464-8.752-5.869c-3.208-1.979-6.937-2.759-11.726-5.844c-1.634-1.066,0.469-2.771-2.928-2.941
		c-2.447-0.117-6.436-4.463-11.7-8.784c-3.332-2.693-5.778-6.325-8.797-8.771c-3.585-2.928-7.815-2.732-11.713-5.856
		c-3.449-2.785-5.823-6.025-8.785-8.797c-2.551-2.382-6.422-6.43-8.771-8.771c-5.446-5.454-6.416-10.646-11.693-17.569
		c-1.789-2.291-4.028-3.046-5.889-5.856c-5.869-8.928-11.354-18.506-17.569-29.282c-1.458-2.511-1.223-5.608-2.915-8.771
		c-0.904-1.678-5.245-4.45-5.856-5.856c-0.735-1.6,0.423-4.164,0-5.855c0.02,0.092-2.688-8.589-2.928-8.785
		c-4.034-3.33-6.025-16.579-8.765-26.353c-0.299-0.964,0.703-5.244,0-5.856c-3.729-3.032-1.581-5.947-2.928-11.713
		c-1.737-7.327-5.434-28.696-5.87-43.896c-0.176-5.973,2.974-11.556,2.941-17.568c-0.033-2.069-2.57-5.153-2.941-8.771
		c-5.219-49.688,0-114.992,0-169.82c0-81.214-3.273-164.328,0-245.913c0.735-18.759,2.264-37.682,5.87-55.622
		c1.125-5.667,1.692-10.183,2.928-14.634c0.222-0.826,2.772-0.202,2.909-2.928c0.052-1.106,0.989-13.053,2.928-14.641
		c0.345-0.293,2.759,0.364,2.928,0c0.501-1.067-0.839-5.147,0-5.856c2.427-1.992,2.772-7.314,5.843-14.628
		c0.566-1.308,2.785,0.169,2.941-2.935c0.241-4.217,5.543-6.318,5.843-11.713c0.202-3.8,4.509-3.65,5.869-5.85
		c0.658-1.08-0.904-5.095,0-5.856c0.332-0.28,2.74,0.351,2.928,0c0.488-1.061-0.859-5.154,0-5.85c0.423-0.358,2.635,0.436,2.928,0
		c2.603-4.002,3.006-7.62,5.856-11.72c0.723-1.06,5.421-1.997,5.831-2.928c0.638-1.354-0.911-4.724,0-5.856
		c2.141-2.59,8.153-8.141,11.726-11.7c4.054-4.067,8.095-8.361,11.712-11.712c1.692-1.568,4.23-4.607,5.857-5.863
		c2.082-1.588,6.578-1.087,8.784-2.922c4.412-3.689,5.167-8.85,8.797-11.712c4.62-3.67,9.441-5.193,14.628-8.785
		c1.829-1.289,4.119-4.77,5.856-5.856c2.394-1.503,5.901-1.159,8.765-2.922c1.815-1.106,4.262-4.991,5.856-5.856
		c3.371-1.803,5.856-1.185,8.784-2.928c1.88-1.1,4.216-4.926,5.856-5.856c1.08-0.599,5.134,0.892,5.876,0
		C398.708,34.02,431.808,27.129,453.75,24.298z M322.016,170.687c10.789,4.711,22.814-13.157,8.785-14.647
		C329.089,162.136,324.657,165.5,322.016,170.687z M515.255,278.995c2.915,0,3.461,2.369,5.843,2.935
		c-0.287-4.607,0.391-10.164-5.843-8.791C515.255,275.091,515.255,277.043,515.255,278.995z M550.38,478.058
		C539.747,491.892,567.506,481.962,550.38,478.058L550.38,478.058z M295.675,571.759c0.521-6.364-2.407-9.318-8.765-8.784
		C286.364,569.365,289.292,572.28,295.675,571.759z M535.739,630.322c3.747-9.93-11.466-15.5-14.642-8.784
		C528.646,621.785,524.182,634.083,535.739,630.322z M433.266,636.166c3.866,3.812,10.88,3.852,11.726-2.915
		C437.632,632.873,435.816,627.642,433.266,636.166z M374.703,899.635c1.958,0,3.897,0,5.856,0c3.273-4.218,3.163-7.133-2.928-8.771
		C377.475,894.624,373.876,894.896,374.703,899.635z M532.811,931.844c1.939,0,3.865,0,5.856,0c0.13-3.748,3.748-4.061,2.928-8.784
		c-2.928,0-5.855,0-8.784,0C532.811,926.001,532.811,928.916,532.811,931.844z"/>
	<path fill-rule="evenodd" clip-rule="evenodd" fill="#FFFFFF" d="M414.792,406.865c-7.177,4.21-14.94,11.57-26.34,5.882
		c-1.536-0.794-2.252-4.509-2.928-5.882c-10.379-20.9-26.523-29.073-4.289-32.08c6.748-0.924,18.441-1.451,24.772,5.746
		C412.691,388.099,417.532,395.751,414.792,406.865z"/>
	<path fill-rule="evenodd" clip-rule="evenodd" fill="#FFFFFF" d="M414.792,302.174c-7.177,4.197-14.94,11.556-26.34,5.863
		c-1.536-0.768-2.252-4.51-2.928-5.863c-10.379-20.901-26.523-29.074-4.289-32.1c6.748-0.897,18.441-1.444,24.772,5.746
		C412.691,283.407,417.532,291.04,414.792,302.174z"/>
	<path fill="#FFFFFF" d="M600.04,803.396c-27.576,27.59-61.478,38.404-61.478,38.404s10.854-33.901,38.443-61.452
		c27.59-27.563,61.479-38.43,61.479-38.43S627.618,775.832,600.04,803.396z"/>
	<path fill="#FFFFFF" d="M598.335,689.797c12.95,12.948,13.132,33.758,13.132,33.758s-20.783-0.196-33.732-13.157
		c-12.948-12.949-13.157-33.745-13.157-33.745S585.399,676.835,598.335,689.797z"/>
	<path fill-rule="evenodd" clip-rule="evenodd" fill="#ED1F24" d="M612.625,754.216c0-3.397,1.73-6.155,3.879-6.155
		c2.147,0,3.865,2.758,3.865,6.155"/>
	<path fill-rule="evenodd" clip-rule="evenodd" fill="#ED1F24" d="M586.754,823.151c0,4.697-4.698,8.523-6.481,8.523
		c-1.809,0-7.704,4.698-7.704,0c0-4.697,5.896-17.022,7.704-17.022C582.056,814.652,586.754,818.492,586.754,823.151z"/>
	<path fill-rule="evenodd" clip-rule="evenodd" fill="#ED1F24" d="M594.665,682.196c-2.173,4.164-5.244,6.858-6.792,6.051
		c-1.588-0.846-1.119-4.88,1.054-9.058c2.174-4.125,5.231-6.858,6.819-6.012C597.347,673.997,596.852,678.045,594.665,682.196z"/>
	<g>
		<path fill="#FFFFFF" d="M719.263,614.744c-7.821-5.843-16.319,1.86-20.484,2.915c-1.771,0.456-4.021-0.117-5.856,0
			c-43.857,3.124-101.652,0.872-142.23,0.026c-1.262,1.314-5.388-0.092-1.224-0.026c0.392,0,0.794,0.026,1.224,0.026
			c0.469-0.494,0.533-1.38-0.508-2.941c4.021-10.241,14.394-21.044,20.511-32.196c5.908-10.867,19.026-22.255,5.843-35.138
			c-5.843,0-11.699,0-17.568,0c-1.836,7.6-6.481,9.838-8.785,11.713c-0.846,0.701,0.534,4.788,0,5.843
			c-0.144,0.39-2.577-0.261-2.928,0c-0.911,0.742,0.599,4.789,0,5.869c-1.913,3.475-2.954,3.475-5.856,5.856
			c-0.911,0.768,0.677,4.789,0,5.856c-1.718,2.694-7.015,5.765-8.771,8.759c-0.768,1.313-2.902,8.406-2.928,8.784
			c-0.17,3.344-2.004,1.353-2.929,2.941c-2.173,3.722-3.969,7.86-5.855,11.712c-3.97,8.107-14.381,16.449-5.856,26.341
			c10.632,9.097,8.068,3.175,22.696,2.941c51.274-0.938,108.134-0.091,152.225,2.889c3.462-0.391,6.611-5.181,8.798,0
			c0.117,39.12,1.08,86.518-8.798,111.27c-0.3,0.729,0.053,2.16,0,2.928c-0.169,3.111-2.395,1.666-2.929,2.954
			c-2.55,6.195-5.738,15.149-5.856,17.53c-0.26,5.415-5.635,7.483-5.869,11.713c-0.143,3.279-2.133,1.471-2.875,2.94
			c-2.147,4.1-0.911,7.705-2.968,11.701c-0.194,0.377-2.563-0.301-2.89,0c-0.989,0.793,0.743,4.84,0,5.869
			c-1.105,1.443-4.854,1.301-5.882,2.914c-0.885,1.393,0.689,4.347,0,5.87c-0.403,0.923-5.141,1.86-5.856,2.929
			c-2.551,3.67-3.267,8.771-5.856,11.712c-5.361,6.078-13.742,12.87-17.543,17.556c-0.832,0.989-4.841-0.794-5.856,0
			c-2.498,1.979-3.356,6.846-5.856,8.785c-3.981,3.006-10.149,4.32-11.725,5.856c-2.447,2.342-6.3,3.474-8.811,5.855
			c-2.655,2.551-5.439,3.722-8.759,5.844c-1.926,1.236-3.995,2.043-5.844,2.928c-37.375,17.752-86.718,25.612-122.969,14.641
			c-2.661-0.807-6.038,0.547-8.784,0c-9.123-1.81-14.387-4.555-17.549-5.843c-0.722-0.286-2.161,0.025-2.928,0
			c-2.928-0.156-1.861-2.564-2.928-2.941c-4.997-1.73-10.411-1.002-14.654-2.915c-0.345-0.156,0.26-2.604,0-2.941
			c-0.677-0.846-4.776,0.495-5.843,0c-0.377-0.156,0.28-2.577,0-2.928c-0.754-0.898-4.789,0.611-5.869,0
			c-0.41-0.208,0.325-2.525,0-2.929c-0.788-0.976-4.809,0.807-5.843,0c-1.438-1.067-1.347-4.815-2.941-5.843
			c-1.347-0.911-4.34,0.677-5.843,0c-0.892-0.43-1.881-5.153-2.928-5.869c-3.195-2.199-8.908-3.54-11.726-5.83
			c-2.837-2.344-5.811-6.156-8.771-8.798c-9.676-8.681-15.955-17.582-23.425-26.34c-4.809-5.637-11.68-11.05-14.062-18.507
			c-4.867-8.237-9.676-17.79-13.45-25.729c-0.592,0.077-1.158,0.234-1.75,0.299c-14.751-36.009-16.378-85.099-14.66-137.57
			c29.313,0,53.507,0,82.789,0c0.768,44.729-2.713,76.002,0,117.086c-0.787,0.195-1.522,0.417-2.317,0.6v26.497
			c9.657-3.149,19.32-6.391,28.67-9.527V749.4c0.202-25.963-0.254-56.48,0-79.061c0.091-9.656-2.394-24.258,2.909-26.313
			c23.211-5.102,84.337,13.573,81.475-17.569c-4.087-9.891-20.172-5.479-32.197-5.856c-13.417-0.43-41.397,0.325-52.187,0
			c0-19.521,0-39.055,0-58.562c8.153,1.757,20.556-1.602,28.481-2.915c7.294-1.224,16.788-1.185,23.406-2.929
			c0.234-0.078-0.182-2.694,0-2.955c0.644-0.768,4.809,0.404,5.856,0c9.475-3.539,23.178-7.834,26.34-11.699
			c0.735-0.897,4.79,0.612,5.87,0c1.659-0.923,3.897-4.866,5.856-5.844c5.596-2.811,13.704-3.552,17.569-5.855
			c0.43-0.248-0.339-2.538,0-2.941c0.793-0.95,4.802,0.795,5.843,0c1.419-1.028,1.393-4.724,2.929-5.817
			c3.149-2.265,8.861-3.617,11.712-5.896c7.066-5.615,11.439-14.849,20.484-17.549c9.317,4.151,14.771,15.897,20.51,20.49
			c1.146,0.938,4.477-0.624,5.844,0c0.95,0.417,1.861,5.142,2.928,5.856c3.514,2.355,8.043,0.911,11.726,2.915
			c-0.364-0.182,2.837,2.876,2.915,2.941c2.655,2.577,5.479,3.735,8.784,5.855c7.744,4.921,19.001,9.176,26.328,11.714
			c6.363,2.159,11.921,4.75,14.653,5.829c0.716,0.313,2.147,0,2.928,0c2.525,0.157,2.369,2.838,2.929,2.955
			c9.513,2.121,11.388-0.339,14.614,2.929c1.445,1.417,9.631-0.404,11.726,0c12.884,2.354,24.753,5.674,38.067,0
			c3.904-14.811,6.207-24.012,2.928-35.139c-1.471-4.945-2.551-9.2-2.928-14.621c-6.495-97.625,10.41-203.715-5.856-275.208
			c-2.304-10.086-8.421-29.978-11.7-35.125c-2.512-3.95-5.739-9.155-5.855-11.712c-0.183-3.345-2.019-1.36-2.929-2.935
			c-4.125-7.054-7.444-14.153-11.727-20.497c-5.856-8.707-11.79-15.767-17.568-20.484c-0.95-0.8,0.82-4.834,0-5.856
			c-2.485-3.182-6.807-6.774-8.771-8.778c-6.871-6.937-16.749-13.417-26.366-20.497c-1.848-1.387-3.722-4.542-5.856-5.856
			c-6.246-3.878-10.333-6.006-14.615-8.792c-1.054-0.696-4.919-2.875-5.855-2.921c-3.279-0.163-1.445-2.173-2.929-2.928
			c-5.452-2.771-10.632-3.013-17.568-5.863c-1.34-0.54-0.104-2.206-2.916-2.909c-4.086-1.021-5.895-1.763-8.784-2.941
			c-5.336-2.127-26.601-8.101-29.281-8.771c-13.729-3.449-93.558-7.978-102.453,2.909c-0.611,0.748-7.704-0.033-8.784,0
			c-2.85,0.163-1.991,2.648-2.928,2.941c-4.587,1.418-9.116,0.996-14.654,2.921c-4.575,1.607-10.528,4.055-14.641,5.85
			c-7.379,3.253-16.053,7.255-23.426,11.712c-3.24,1.979-5.667,6.761-8.758,8.792c-0.481,0.312-2.362-0.033-2.955,0
			c-3.306,0.163-1.347,2.076-2.915,2.935c-12.728,7.073-16.125,13.183-26.354,23.419c-6.123,6.129-20.198,14.868-20.478,20.49
			c-0.188,3.299-2.069,1.373-2.928,2.935c-1.535,2.739-1.1,5.863-2.928,8.759c-0.8,1.269-4.854,1.613-5.856,2.935
			c-1.568,2.069-1.926,6.949-2.928,8.797c-0.189,0.396-2.57-0.326-2.928,0c-1.021,0.833-2.238,7.71-2.947,8.771
			c-4.354,6.526-8.563,13.756-2.928,20.503c10.307,11.576,27.42,3.442,43.922,2.909c33.732-1.067,74.239,1.978,105.414,0
			c8.16-0.501,26.022,5.167,26.334-8.771c1.178-26.666-26.978-15.61-40.975-14.641c-34.591,2.375-67.159-6.664-96.642-2.916
			c0.592-7.424,7.841-9.649,11.726-14.653c4.229-5.407,6.559-12.39,11.732-17.569c4.321-4.321,9.175-7.418,14.635-11.713
			c5.42-4.243,12.109-8.14,17.556-11.699c1.802-1.178,3.839-4.653,5.843-5.85c1.45-0.859,4.301,0.696,5.882,0
			c1.055-0.475,1.633-5.199,2.902-5.863c4.978-2.597,15.857-5.759,17.569-5.843c3.065-0.169,1.718-2.44,2.928-2.935
			c28.026-11.068,66.495-16.521,105.395-11.713c2.954,0.358,3.409,2.414,5.855,2.921c2.785,0.612,6.039-0.696,8.798,0
			c15.2,3.95,40.291,14.082,55.557,22.742c-19.117,18.148-50.807,55.55-55.778,61.433c-0.039,0.065-0.091,0.111-0.116,0.176
			c-0.353,0.396-0.561,0.631-0.561,0.631v0.026c-0.794,1.002-1.51,1.965-2.043,2.824c-3.436,5.577-6.468,7.938-8.784,11.706
			c-3.618,5.869-6.052,10.223-8.771,14.641c-1.106,1.77-4.764,3.839-5.869,5.856c-1.797,3.286-3.84,10.015-5.856,14.634
			c-9.818,22.599-18.271,46.441-20.498,73.191c-0.78,9.773,2.928,24.251-2.928,26.353c-6.845,0-13.639,0-20.484,0
			c-0.827-19.111,1.133-37.682,0-52.687c-1.158-15.344,0.911-29.841-11.712-40.994c-12.773-11.303-37.09-8.915-64.4-8.791
			c-23.438,0.13-49.278-2.297-61.459,11.726c-3.318,3.768-4.555,9.695-5.869,11.7c-12.591,18.896,3.254,53.689-2.928,79.047
			c-15.63,0-31.208,0-46.85,0c-3.039,6.878-3.54,12.741-5.856,14.634c-0.754,0.618,0.059,7.692,0,8.792
			c-0.078,1.704-2.928,3.423-2.928,2.915c-0.11,2.902,2.44,3.507,2.928,5.857c2.225,10.294,2.473,15.59,2.928,23.425
			c5.902,107.965-9.663,267.607,2.928,363.039c0.768,5.727-0.521,8.889,2.928,11.687c0.8,0.651-0.391,4.815,0,5.882
			c7.372,19.562,18.115,45.146,26.353,58.538c1.425,2.29,5.726,6.285,5.856,8.771c0.292,5.791,8.531,6.779,8.784,11.699
			c0.293,5.791,6.793,6.194,8.797,8.798c4.165,5.452,5.024,10.892,8.771,14.628c4.21,4.229,8.017,4.203,11.693,5.869
			c0.865,0.364,1.991,5.102,2.928,5.843c4.854,3.787,7.705,4.074,11.732,5.856c0.904,0.43,1.841,5.128,2.908,5.856
			c2.46,1.692,6.637,1.653,8.771,2.941c0.749,0.442,1.581,2.029,2.928,2.915c2.115,1.327,3.943,1.705,5.87,2.928
			c1.77,1.106,3.865,4.672,5.856,5.87c1.458,0.871,4.288-0.717,5.843,0c1.106,0.468,1.607,5.218,2.941,5.855
			c2.336,1.093,6.279-0.754,8.771,0c1.125,0.325,4.353,5.323,5.869,5.856c5.59,1.913,12.493,1.471,17.569,2.915
			c22.326,6.429,46.096,11.896,70.256,11.713c29.412-0.26,58.862-6.832,84.903-17.569c2.89-1.197,5.622-1.223,8.785-2.915
			c1.627-0.911,3.93-4.893,5.817-5.855c3.059-1.536,6.442-1.849,8.811-2.941c1.575-0.742,4.503-2.851,5.855-2.929
			c3.346-0.156,1.354-1.965,2.941-2.928c6.417-3.892,8.446-4.789,11.674-8.771c0.78-0.976,4.815,0.716,5.856,0
			c1.691-1.158,3.982-4.321,5.856-5.869c10.867-8.851,23.112-21.812,32.249-29.269c0.937-0.82-0.833-4.854,0-5.844
			c3.436-4.269,9.097-6.663,11.673-8.784c0.976-0.808-0.755-4.841,0-5.869c0.833-1.081,4.737-2.018,5.856-2.928
			c0.963-0.769-0.702-4.79,0-5.844c0.65-1.003,4.894-2.121,5.87-2.954c0.897-0.729-0.612-4.764,0-5.83
			c0.949-1.692,4.84-3.918,5.856-5.869c2.107-4.139,1.027-7.602,2.9-11.701c0.105-0.168,2.317-2.004,2.955-2.94
			c6.064-9.487,5.688-20.328,11.7-26.341c1.535-1.535-0.573-9.447,0-11.712c0.064-0.261,2.693,0.26,2.928,0
			c1.431-1.419-0.378-9.578,0-11.726c3.787-20.719,2.929-46.969,2.929-73.191C725.119,649.479,729.101,627.511,719.263,614.744z
			 M377.521,620.601c-28.279,0-51.529,0-79.841,0c0-25.364,0-55.167,0-80.544c27.655,8.524,46.258,23.412,82.789,21.981
			C378.867,580.946,383.865,606.429,377.521,620.601z M575.821,430.29c-4.216,7.177-6.013,17.25-14.653,20.491
			c-7.926,3.429-5.974-5.186-8.771-8.785c-1.158-1.451-4.79-1.529-5.856-2.909c-0.78-1.06,0.938-5.062,0-5.869
			c-0.378-0.312-2.681,0.436-2.915,0c-0.625-1.067,0.898-5.089,0-5.863c-0.378-0.254-2.759,0.384-2.941,0
			c-0.521-1.048,0.873-5.134,0-5.831c-7.77-6.376-10.58-21.102-14.641-35.138c-0.234-0.859-2.771-0.169-2.915-2.928
			c-0.064-1.106,0.716-8.166,0-8.784c-1.38-1.113-4.894-6.071-2.928-14.641c-2.851-0.072-2.29-3.586-2.941-5.857
			c22.722-6.565,57.404-1.171,84.916-2.915c-1.379,16.807-5.596,34.356-11.726,49.785c-0.43,1.009,0.807,5.187,0,5.817
			c-0.299,0.28-2.798-0.319-2.928,0c-0.443,1.047,0.819,5.199,0,5.882c-0.352,0.267-2.759-0.377-2.916,0
			c-0.507,1.048,0.847,5.147,0,5.85c-0.376,0.273-2.745-0.377-2.928,0c-0.533,1.061,0.859,5.141,0,5.856
			c-0.351,0.28-2.784-0.377-2.928,0c-0.534,1.048,0.846,5.141,0,5.837C578.346,430.609,576.043,429.887,575.821,430.29z
			 M695.851,532.769c-26.562-1.171-48.725-11.088-67.361-20.504c-19.078-9.643-34.683-21.512-49.739-35.125
			c23.751-34.792,47.813-69.28,49.739-125.877c25.624,1.522,45.575,4.242,70.289,0C697.347,411.322,701.928,477.342,695.851,532.769
			z M534.593,244.339c0-0.02,0.026-0.02,0.026-0.02c5.31-12.22,11.518-23.64,17.634-33.752c1.028-1.894,2.069-3.774,3.071-5.7
			c0.17,0,0.312,0,0.469,0c7.471-11.817,14.523-21.454,19.508-27.831c-0.104-0.11-0.208-0.202-0.312-0.286
			c15.785-18.779,34.188-34.748,47.227-45.061c3.111,3.175,5.154,7.932,6.273,8.785c2.824,2.095,6.455,0.592,8.784,2.928
			c1.614,1.607,1.614,7.067,2.929,8.791c3.917,5.095,8.719,7.685,11.726,11.693c2.265,3.019,3.617,5.856,5.855,8.797
			c3.463,4.483,8.993,7.659,11.7,11.7c1.705,2.538,1.652,6.585,2.968,8.778c0.402,0.761,2.017,1.542,2.875,2.935
			c1.236,1.933,2.031,3.989,2.941,5.863c16.71,34.149,23.101,75.175,20.511,125.878c-23.399-0.013-47.943,1.074-67.322-2.928
			c-1.834-19.065-1.132-23.165-5.035-40.733c-1.9-2.134-4.257-17.523-17.582-12.956c-14.759,5.069-8.863,13.918-9.631,18.564
			c3.917,3.182,5.088,25.202,5.882,38.053c-29.269,0-58.55,0-87.831,0C515.879,292.836,523.883,267.218,534.593,244.339z
			 M350.386,254.653c2.382-0.56,2.915-2.928,5.875-2.928c26.536,1.744,60.216-3.625,81.95,2.928
			c6.5,18.877,1.223,49.519,2.915,73.184c-36.543,0.833-60.333-3.644-93.668,0C349.163,304.171,343.892,273.53,350.386,254.653z
			 M347.458,351.263c31.221,0,62.493,0,93.668,0c0,27.316,0,54.633,0,81.956c-23.224,6.826-64.354,8.68-90.74,2.935
			C343.808,413.443,349.228,378.761,347.458,351.263z M303.555,351.263c3.898,0,7.809,0,11.712,0
			c10.379-0.306,5.635,14.074,5.856,17.542c1.016,17.224-4.874,60.958,2.928,73.191c0.872,1.386,2.473,2.199,2.941,2.948
			c0.912,1.523,1.491,7.216,2.928,8.771c2.258,2.518,5.935,0.807,8.752,2.928c0.97,0.722,2.069,5.472,2.928,5.862
			c14.719,6.618,96.141,4.958,108.31-2.935c1.646-1.047-0.437-2.739,2.941-2.928c5.655-0.299,3.306-5.362,5.856-8.771
			c0.754-1.015,5.453-2.05,5.856-2.928c2.928-6.422,2.636-17.433,2.928-23.419c0.82-16.092-0.449-29.73,0-49.765
			c0.111-5.115-2.674-14.634,2.928-20.497c6.833,0,13.639,0,20.484,0c4.731,52.836,24.375,90.772,49.779,122.943
			c-29.945,38.034-98.086,68.544-166.885,61.491c-28.28-2.915-52.628-14.966-76.119-23.432
			C299.261,458.225,293.268,396.597,303.555,351.263z"/>
		<path fill="#FFFFFF" d="M599.208,289.784C598.505,289.179,599.897,292.446,599.208,289.784L599.208,289.784z"/>
	</g>
	<g>
		<path fill-rule="evenodd" clip-rule="evenodd" fill="#FFFFFF" d="M288.602,713.261c3.957,6.429,2.251,4.112,4.165,12.506
			c1.705,7.419,12.806,15.369,20.106,22.137c2.284,2.122,3.898,3.879,6.273,6.078c3.371,3.123,11.608,7.131,20.205,11.088
			c5.147,2.355,10.814,1.054,15.857,2.785c10.255,3.475,22.943,8.784,32.6,10.84c7.756-5.166,15.942-1.86,22.8-3.24
			c6.247-1.275,12.513-3.786,18.48-6.507c4.034-1.874,6.872-4.854,11.29-7.835c3.475-2.342,8.186-3.097,10.879-5.439
			c1.815-1.601,1.705-4.893,3.676-6.729c0.846-0.768,4.64-0.768,5.219-1.548c1.783-2.316,3.02-10.333,4.568-11.491
			c7.177-5.35,12.826-6.429,22.801-3.254c3.195,5.505,2.681,7.04,3.052,10.424c0.097,0.938,2.961,2.824,1.522,5.219
			c-0.521,0.846-2.127-0.3-2.837,1.952c-1.907,6.3-3.006,8.746-7.373,13.47c-2.225,2.407-3.604,4.517-6.11,6.312
			c-2.297,1.68-3.787,4.634-6.071,6.312c0.423-0.353-11.12,7.535-11.745,10.203c-1.178,4.944-6.279,2.498-10.854,5.427
			c-1.061,0.689-2.193,3.878-3.253,4.333c-3.293,1.405-6.455-0.43-9.995,0.65c-1.451,0.442-4.477,3.67-5.648,3.904
			c-3.806,0.795-7.269,0.442-10.007,0.664c-6.357,0.494-12.637,0.156-19.977,1.275c-28.078,4.398-46.336-4.997-64.518-11.713
			c-6.871-2.563-13.821-5.427-18.571-7.587c-4.867-2.199-6.448-8.603-12.35-12.545c-0.989-0.69,0.612-2.226-1.958-2.825
			c-6.748-1.587-15.331-17.646-19.983-25.846c-0.449-0.832-4.145-2.59-4.301-3.278c-0.344-1.251,1.425-3.618,0.846-4.79
			c-0.442-0.911-4.165-2.459-4.353-3.253c-0.312-1.302,1.392-3.527,0.859-4.764c-0.41-1.002-0.202-0.17-0.41-1.002
			c-0.904-3.566-1.093-6.884-2.264-10.489c-0.443-1.314,6.962-3.319,6.884-5.83C277.735,694.325,268.216,705.4,288.602,713.261z"/>
	</g>
</g>
</svg>
